<svg width="48" height="48" viewBox="0 0 48 48" fill="none" xmlns="http://www.w3.org/2000/svg">
<path d="M24 3C12.4031 3 3 12.4031 3 24C3 35.5969 12.4031 45 24 45C35.5969 45 45 35.5969 45 24C45 12.4031 35.5969 3 24 3ZM30.7547 24.3234L20.5172 31.7719C20.4611 31.8122 20.3949 31.8363 20.326 31.8415C20.2571 31.8466 20.1881 31.8327 20.1265 31.8012C20.065 31.7697 20.0134 31.7219 19.9773 31.663C19.9411 31.604 19.922 31.5363 19.9219 31.4672V16.5797C19.9216 16.5104 19.9406 16.4425 19.9766 16.3833C20.0127 16.3242 20.0644 16.2762 20.126 16.2446C20.1877 16.2131 20.2568 16.1992 20.3259 16.2046C20.3949 16.2099 20.4611 16.2343 20.5172 16.275L30.7547 23.7188C30.8031 23.753 30.8425 23.7983 30.8697 23.8509C30.897 23.9035 30.9112 23.9619 30.9112 24.0211C30.9112 24.0803 30.897 24.1387 30.8697 24.1913C30.8425 24.2439 30.8031 24.2892 30.7547 24.3234Z" fill="white"/>
</svg>
