<svg width="20" height="20" viewBox="0 0 20 20" fill="none" xmlns="http://www.w3.org/2000/svg">
<path d="M12.4934 7.05754L8.56088 10.9992L7.04838 9.48671C6.9662 9.39075 6.86508 9.31281 6.75135 9.25779C6.63762 9.20277 6.51375 9.17185 6.38751 9.16698C6.26127 9.1621 6.13538 9.18337 6.01775 9.22946C5.90012 9.27554 5.79328 9.34544 5.70395 9.43478C5.61461 9.52411 5.54471 9.63095 5.49863 9.74858C5.45254 9.86621 5.43127 9.9921 5.43615 10.1183C5.44102 10.2446 5.47194 10.3685 5.52696 10.4822C5.58198 10.5959 5.65992 10.697 5.75588 10.7792L7.91005 12.9425C7.9957 13.0275 8.09728 13.0947 8.20896 13.1403C8.32065 13.1859 8.44024 13.2091 8.56088 13.2084C8.80136 13.2074 9.03181 13.1119 9.20255 12.9425L13.7859 8.35921C13.8718 8.27399 13.94 8.17261 13.9865 8.0609C14.0331 7.9492 14.057 7.82939 14.057 7.70837C14.057 7.58736 14.0331 7.46755 13.9865 7.35585C13.94 7.24414 13.8718 7.14276 13.7859 7.05754C13.6141 6.88681 13.3818 6.79098 13.1396 6.79098C12.8975 6.79098 12.6651 6.88681 12.4934 7.05754ZM10 0.833374C8.18705 0.833374 6.41477 1.37099 4.90732 2.37824C3.39987 3.38548 2.22495 4.81712 1.53115 6.49211C0.837346 8.1671 0.655815 10.0102 1.00951 11.7884C1.36321 13.5665 2.23625 15.1999 3.51823 16.4819C4.80021 17.7638 6.43356 18.6369 8.21172 18.9906C9.98988 19.3443 11.833 19.1627 13.508 18.4689C15.183 17.7751 16.6146 16.6002 17.6218 15.0928C18.6291 13.5853 19.1667 11.813 19.1667 10C19.1667 8.79626 18.9296 7.60426 18.4689 6.49211C18.0083 5.37996 17.3331 4.36943 16.4819 3.51823C15.6307 2.66702 14.6201 1.99181 13.508 1.53115C12.3958 1.07048 11.2038 0.833374 10 0.833374ZM10 17.3334C8.54965 17.3334 7.13182 16.9033 5.92586 16.0975C4.7199 15.2917 3.77997 14.1464 3.22493 12.8064C2.66989 11.4664 2.52466 9.99191 2.80762 8.56938C3.09058 7.14685 3.78901 5.84018 4.81459 4.81459C5.84018 3.78901 7.14686 3.09057 8.56938 2.80762C9.99191 2.52466 11.4664 2.66988 12.8064 3.22492C14.1464 3.77997 15.2917 4.7199 16.0975 5.92586C16.9033 7.13182 17.3334 8.54964 17.3334 10C17.3334 11.945 16.5608 13.8102 15.1855 15.1855C13.8102 16.5608 11.945 17.3334 10 17.3334Z" fill="#00DF76"/>
</svg>
