<svg width="22" height="22" viewBox="0 0 22 22" fill="none" xmlns="http://www.w3.org/2000/svg">
<path d="M14.4008 7.59918C14.3156 7.51326 14.2142 7.44507 14.1025 7.39853C13.9908 7.35199 13.871 7.32803 13.75 7.32803C13.629 7.32803 13.5092 7.35199 13.3975 7.39853C13.2858 7.44507 13.1844 7.51326 13.0992 7.59918L11 9.70751L8.90084 7.59918C8.72823 7.42657 8.49412 7.32959 8.25001 7.32959C8.0059 7.32959 7.77179 7.42657 7.59918 7.59918C7.42657 7.77179 7.32959 8.0059 7.32959 8.25001C7.32959 8.49412 7.42657 8.72823 7.59918 8.90084L9.70751 11L7.59918 13.0992C7.51326 13.1844 7.44507 13.2858 7.39853 13.3975C7.35199 13.5092 7.32803 13.629 7.32803 13.75C7.32803 13.871 7.35199 13.9908 7.39853 14.1025C7.44507 14.2142 7.51326 14.3156 7.59918 14.4008C7.68439 14.4868 7.78578 14.555 7.89748 14.6015C8.00919 14.648 8.129 14.672 8.25001 14.672C8.37102 14.672 8.49084 14.648 8.60254 14.6015C8.71424 14.555 8.81563 14.4868 8.90084 14.4008L11 12.2925L13.0992 14.4008C13.1844 14.4868 13.2858 14.555 13.3975 14.6015C13.5092 14.648 13.629 14.672 13.75 14.672C13.871 14.672 13.9908 14.648 14.1025 14.6015C14.2142 14.555 14.3156 14.4868 14.4008 14.4008C14.4868 14.3156 14.555 14.2142 14.6015 14.1025C14.648 13.9908 14.672 13.871 14.672 13.75C14.672 13.629 14.648 13.5092 14.6015 13.3975C14.555 13.2858 14.4868 13.1844 14.4008 13.0992L12.2925 11L14.4008 8.90084C14.4868 8.81563 14.555 8.71424 14.6015 8.60254C14.648 8.49084 14.672 8.37102 14.672 8.25001C14.672 8.129 14.648 8.00919 14.6015 7.89748C14.555 7.78578 14.4868 7.68439 14.4008 7.59918ZM17.4808 4.51918C16.6352 3.64367 15.6238 2.94533 14.5054 2.46492C13.387 1.9845 12.1842 1.73163 10.967 1.72105C9.74988 1.71047 8.54282 1.9424 7.41627 2.40331C6.28972 2.86422 5.26624 3.54487 4.40556 4.40556C3.54487 5.26624 2.86422 6.28972 2.40331 7.41627C1.9424 8.54282 1.71047 9.74988 1.72105 10.967C1.73163 12.1842 1.9845 13.387 2.46492 14.5054C2.94533 15.6238 3.64367 16.6352 4.51918 17.4808C5.36477 18.3564 6.37627 19.0547 7.49464 19.5351C8.61301 20.0155 9.81586 20.2684 11.033 20.279C12.2501 20.2896 13.4572 20.0576 14.5838 19.5967C15.7103 19.1358 16.7338 18.4551 17.5945 17.5945C18.4551 16.7338 19.1358 15.7103 19.5967 14.5838C20.0576 13.4572 20.2896 12.2501 20.279 11.033C20.2684 9.81586 20.0155 8.61301 19.5351 7.49464C19.0547 6.37627 18.3564 5.36477 17.4808 4.51918ZM16.1883 16.1883C14.9894 17.3886 13.4113 18.1361 11.7231 18.3034C10.0348 18.4707 8.34077 18.0474 6.92957 17.1057C5.51838 16.164 4.47734 14.7622 3.98382 13.139C3.4903 11.5159 3.57483 9.77181 4.22302 8.20398C4.8712 6.63615 6.04293 5.34156 7.53858 4.54078C9.03423 3.73999 10.7613 3.48255 12.4254 3.81231C14.0896 4.14208 15.588 5.03865 16.6652 6.34927C17.7425 7.65989 18.332 9.30348 18.3333 11C18.3366 11.9637 18.1487 12.9185 17.7805 13.809C17.4123 14.6996 16.8712 15.5083 16.1883 16.1883Z" fill="#FF6652"/>
</svg>
