<svg width="48" height="48" viewBox="0 0 48 48" fill="none" xmlns="http://www.w3.org/2000/svg">
<g clip-path="url(#clip0_41_770)">
<path d="M23.8739 8C19.7401 8 16.3891 11.9124 16.3891 16.7386C16.3891 20.0857 18.0009 22.9926 20.3678 24.4604L17.6231 25.7325L10.3192 29.12C9.61356 29.4728 9.2614 30.0711 9.2614 30.9179V38.9619C9.31944 39.9677 9.92288 40.905 10.9012 40.9209H36.886C38.003 40.8238 38.568 39.9241 38.579 38.9619V30.9179C38.579 30.0711 38.2269 29.4728 37.5213 29.12L30.4818 25.7325L27.5563 24.3465C29.826 22.8456 31.3587 20.0015 31.3587 16.7386C31.3587 11.9124 28.0076 8 23.8739 8ZM11.8009 11.073C10.022 11.1405 8.61216 11.9103 7.54104 13.1368C6.35624 14.6135 5.77864 16.3668 5.76748 18.1109C5.84024 20.6901 6.99424 23.1316 9.04864 24.4088L0.84652 28.2203C0.282 28.432 0 28.9259 0 29.7021V36.158C0.04408 37.0142 0.48864 37.7338 1.3222 37.7461H6.77356V30.9179C6.86376 29.0923 7.72104 27.6167 9.2614 26.8966L14.7113 24.304C15.1346 24.057 15.5405 23.7212 15.9286 23.2979C13.6816 19.8309 13.3695 15.6783 14.8177 12.0259C13.8758 11.4494 12.8173 11.079 11.8009 11.073ZM36.1444 11.073C34.981 11.0973 33.906 11.5257 33.0228 12.1307C34.4315 15.8162 34.0429 19.9713 31.9635 23.1915C32.4222 23.7207 32.8997 24.1266 33.3936 24.4088L38.6322 26.8966C40.2281 27.7719 41.051 29.2606 41.0669 30.9179V37.7462H46.6763C47.5988 37.6665 47.992 36.9307 48 36.158V29.7021C48 28.9965 47.718 28.5026 47.1535 28.2203L39.0562 24.3556C41.1562 22.8073 42.2106 20.4868 42.231 18.1109C42.1752 16.2305 41.6007 14.4844 40.4574 13.1368C39.2628 11.8408 37.781 11.0867 36.1444 11.073Z" fill="#673F86"/>
</g>
<defs>
<clipPath id="clip0_41_770">
<rect width="48" height="48" fill="white"/>
</clipPath>
</defs>
</svg>
