<svg width="88" height="88" viewBox="0 0 88 88" fill="none" xmlns="http://www.w3.org/2000/svg">
<circle cx="44" cy="44" r="44" fill="white"/>
<path fill-rule="evenodd" clip-rule="evenodd" d="M53.8106 38.5379C53.8106 40.8525 52.8911 43.0723 51.2545 44.709C49.6178 46.3457 47.398 47.2652 45.0834 47.2652C42.7687 47.2652 40.5489 46.3457 38.9122 44.709C37.2756 43.0723 36.3561 40.8525 36.3561 38.5379C36.3561 36.2233 37.2756 34.0034 38.9122 32.3668C40.5489 30.7301 42.7687 29.8106 45.0834 29.8106C47.398 29.8106 49.6178 30.7301 51.2545 32.3668C52.8911 34.0034 53.8106 36.2233 53.8106 38.5379ZM49.447 38.5379C49.447 39.6952 48.9873 40.8051 48.1689 41.6234C47.3506 42.4418 46.2407 42.9015 45.0834 42.9015C43.926 42.9015 42.8161 42.4418 41.9978 41.6234C41.1795 40.8051 40.7197 39.6952 40.7197 38.5379C40.7197 37.3806 41.1795 36.2707 41.9978 35.4523C42.8161 34.634 43.926 34.1742 45.0834 34.1742C46.2407 34.1742 47.3506 34.634 48.1689 35.4523C48.9873 36.2707 49.447 37.3806 49.447 38.5379Z" fill="#673F86"/>
<path fill-rule="evenodd" clip-rule="evenodd" d="M45.0834 21.0834C31.8288 21.0834 21.0834 31.8288 21.0834 45.0834C21.0834 58.3379 31.8288 69.0834 45.0834 69.0834C58.3379 69.0834 69.0834 58.3379 69.0834 45.0834C69.0834 31.8288 58.3379 21.0834 45.0834 21.0834ZM25.447 45.0834C25.447 49.6434 27.0026 53.8412 29.6099 57.175C31.441 54.7704 33.8032 52.8217 36.512 51.4811C39.2208 50.1406 42.2028 49.4444 45.2252 49.447C48.2085 49.4442 51.153 50.1223 53.8345 51.4298C56.516 52.7373 58.8637 54.6396 60.6986 56.9917C62.5891 54.5123 63.8619 51.6184 64.4119 48.5494C64.9618 45.4804 64.773 42.3245 63.8612 39.343C62.9493 36.3614 61.3406 33.6398 59.1681 31.4035C56.9956 29.1671 54.3217 27.4802 51.3678 26.4823C48.4139 25.4844 45.2649 25.2043 42.1813 25.6651C39.0976 26.1259 36.168 27.3144 33.6349 29.1322C31.1017 30.95 29.0379 33.3449 27.6141 36.1187C26.1902 38.8925 25.4474 41.9655 25.447 45.0834ZM45.0834 64.7197C40.5756 64.7265 36.204 63.1758 32.7081 60.3299C34.1152 58.3155 35.9881 56.6708 38.1674 55.5358C40.3468 54.4007 42.768 53.8089 45.2252 53.8106C47.6517 53.8087 50.0437 54.3857 52.2025 55.4938C54.3613 56.6018 56.2245 58.2089 57.6376 60.1816C54.1146 63.1198 49.6708 64.7262 45.0834 64.7197Z" fill="#673F86"/>
</svg>
