<svg width="88" height="88" viewBox="0 0 88 88" fill="none" xmlns="http://www.w3.org/2000/svg">
<circle cx="44" cy="44" r="44" fill="white"/>
<path d="M24.8 20C22.136 20 20 22.2484 20 25.0526V50.3158C20 51.6558 20.5057 52.941 21.4059 53.8885C22.3061 54.8361 23.527 55.3684 24.8 55.3684H44V68L51.2 60.4211L58.4 68V55.3684H63.2C64.473 55.3684 65.6939 54.8361 66.5941 53.8885C67.4943 52.941 68 51.6558 68 50.3158V25.0526C68 23.7126 67.4943 22.4274 66.5941 21.4799C65.6939 20.5323 64.473 20 63.2 20H24.8ZM44 25.0526L51.2 30.1053L58.4 25.0526V33.8947L65.6 37.6842L58.4 41.4737V50.3158L51.2 45.2632L44 50.3158V41.4737L36.8 37.6842L44 33.8947V25.0526ZM24.8 25.0526H36.8V30.1053H24.8V25.0526ZM24.8 35.1579H32V40.2105H24.8V35.1579ZM24.8 45.2632H36.8V50.3158H24.8V45.2632Z" fill="#673F86"/>
</svg>
