<svg width="113" height="25" viewBox="0 0 113 25" fill="none" xmlns="http://www.w3.org/2000/svg">
<path d="M29.912 18V6.8H33.688V15.072H38.744V18H29.912ZM45.1273 18V16.448L44.8713 16.032V13.088C44.8713 12.6613 44.7379 12.336 44.4713 12.112C44.2153 11.888 43.7939 11.776 43.2073 11.776C42.8126 11.776 42.4126 11.84 42.0073 11.968C41.6019 12.0853 41.2553 12.2507 40.9673 12.464L39.8153 10.08C40.3273 9.76 40.9406 9.51467 41.6553 9.344C42.3699 9.17333 43.0686 9.088 43.7513 9.088C45.2553 9.088 46.4179 9.424 47.2393 10.096C48.0713 10.768 48.4873 11.8347 48.4873 13.296V18H45.1273ZM42.6473 18.16C41.9326 18.16 41.3353 18.0373 40.8553 17.792C40.3753 17.5467 40.0126 17.2213 39.7673 16.816C39.5219 16.4 39.3993 15.9413 39.3993 15.44C39.3993 14.8747 39.5433 14.3947 39.8313 14C40.1193 13.6053 40.5566 13.3067 41.1432 13.104C41.7406 12.9013 42.4926 12.8 43.3993 12.8H45.2233V14.544H43.9753C43.5913 14.544 43.3086 14.608 43.1273 14.736C42.9566 14.8533 42.8713 15.0347 42.8713 15.28C42.8713 15.4827 42.9459 15.6533 43.0953 15.792C43.2553 15.92 43.4686 15.984 43.7352 15.984C43.9806 15.984 44.2046 15.92 44.4073 15.792C44.6206 15.6533 44.7753 15.44 44.8713 15.152L45.3353 16.224C45.1966 16.8747 44.9033 17.36 44.4553 17.68C44.0073 18 43.4046 18.16 42.6473 18.16ZM56.13 9.088C56.802 9.088 57.41 9.22667 57.954 9.504C58.498 9.77067 58.9247 10.192 59.234 10.768C59.554 11.344 59.714 12.0907 59.714 13.008V18H56.098V13.632C56.098 13.088 56.002 12.704 55.81 12.48C55.618 12.2453 55.3567 12.128 55.026 12.128C54.7807 12.128 54.5513 12.1867 54.338 12.304C54.1353 12.4107 53.97 12.592 53.842 12.848C53.7247 13.104 53.666 13.4507 53.666 13.888V18H50.05V9.248H53.49V11.808L52.802 11.072C53.1433 10.4107 53.602 9.91467 54.178 9.584C54.7647 9.25333 55.4153 9.088 56.13 9.088ZM65.2806 18.16C64.5233 18.16 63.8193 17.9787 63.1686 17.616C62.5286 17.2427 62.0166 16.72 61.6326 16.048C61.2486 15.3653 61.0566 14.5547 61.0566 13.616C61.0566 12.6773 61.2486 11.872 61.6326 11.2C62.0166 10.5173 62.5286 9.99467 63.1686 9.632C63.8193 9.26933 64.5233 9.088 65.2806 9.088C66.0486 9.088 66.678 9.25333 67.1686 9.584C67.6593 9.904 68.022 10.4 68.2566 11.072C68.4913 11.7333 68.6086 12.5813 68.6086 13.616C68.6086 14.6613 68.4966 15.52 68.2726 16.192C68.0593 16.864 67.7073 17.36 67.2166 17.68C66.7366 18 66.0913 18.16 65.2806 18.16ZM66.1446 15.344C66.4113 15.344 66.6513 15.28 66.8646 15.152C67.078 15.024 67.2486 14.832 67.3766 14.576C67.5046 14.3093 67.5686 13.9893 67.5686 13.616C67.5686 13.232 67.5046 12.9173 67.3766 12.672C67.2486 12.416 67.078 12.224 66.8646 12.096C66.6513 11.968 66.4113 11.904 66.1446 11.904C65.878 11.904 65.638 11.968 65.4246 12.096C65.2113 12.224 65.0406 12.416 64.9126 12.672C64.7846 12.9173 64.7206 13.232 64.7206 13.616C64.7206 13.9893 64.7846 14.3093 64.9126 14.576C65.0406 14.832 65.2113 15.024 65.4246 15.152C65.638 15.28 65.878 15.344 66.1446 15.344ZM67.6806 18V16.816L67.6646 13.616L67.5046 10.416V6.128H71.1206V18H67.6806ZM72.8339 18V6.8H78.3539C79.6019 6.8 80.7005 7.02933 81.6499 7.488C82.5992 7.936 83.3405 8.576 83.8739 9.408C84.4072 10.24 84.6739 11.232 84.6739 12.384C84.6739 13.5467 84.4072 14.5493 83.8739 15.392C83.3405 16.224 82.5992 16.8693 81.6499 17.328C80.7005 17.776 79.6019 18 78.3539 18H72.8339ZM76.6099 15.056H78.1939C78.7272 15.056 79.1912 14.9547 79.5859 14.752C79.9912 14.5493 80.3059 14.2507 80.5299 13.856C80.7539 13.4507 80.8659 12.96 80.8659 12.384C80.8659 11.8187 80.7539 11.3387 80.5299 10.944C80.3059 10.5493 79.9912 10.2507 79.5859 10.048C79.1912 9.84533 78.7272 9.744 78.1939 9.744H76.6099V15.056ZM90.5646 18.16C89.5726 18.16 88.6926 17.968 87.9246 17.584C87.1673 17.1893 86.57 16.6507 86.1326 15.968C85.6953 15.2853 85.4766 14.5013 85.4766 13.616C85.4766 12.7307 85.6953 11.9467 86.1326 11.264C86.57 10.5813 87.1673 10.048 87.9246 9.664C88.6926 9.28 89.5726 9.088 90.5646 9.088C91.5566 9.088 92.4366 9.28 93.2046 9.664C93.9726 10.048 94.57 10.5813 94.9966 11.264C95.434 11.9467 95.6526 12.7307 95.6526 13.616C95.6526 14.5013 95.434 15.2853 94.9966 15.968C94.57 16.6507 93.9726 17.1893 93.2046 17.584C92.4366 17.968 91.5566 18.16 90.5646 18.16ZM90.5646 15.344C90.8313 15.344 91.0713 15.28 91.2846 15.152C91.498 15.024 91.6686 14.832 91.7966 14.576C91.9246 14.3093 91.9886 13.9893 91.9886 13.616C91.9886 13.232 91.9246 12.9173 91.7966 12.672C91.6686 12.416 91.498 12.224 91.2846 12.096C91.0713 11.968 90.8313 11.904 90.5646 11.904C90.298 11.904 90.058 11.968 89.8446 12.096C89.6313 12.224 89.4606 12.416 89.3326 12.672C89.2046 12.9173 89.1406 13.232 89.1406 13.616C89.1406 13.9893 89.2046 14.3093 89.3326 14.576C89.4606 14.832 89.6313 15.024 89.8446 15.152C90.058 15.28 90.298 15.344 90.5646 15.344ZM96.7044 21.264C96.2777 21.264 95.8724 21.2267 95.4884 21.152C95.0937 21.0773 94.7577 20.9707 94.4804 20.832L95.3444 18.32C95.6004 18.4587 95.8724 18.528 96.1604 18.528C96.3737 18.528 96.5497 18.448 96.6884 18.288C96.8377 18.128 96.9124 17.872 96.9124 17.52V9.248H100.528V17.552C100.528 18.6827 100.192 19.584 99.5204 20.256C98.8484 20.928 97.9097 21.264 96.7044 21.264ZM98.7204 8.544C98.059 8.544 97.531 8.368 97.1364 8.016C96.7417 7.664 96.5444 7.22667 96.5444 6.704C96.5444 6.18133 96.7417 5.744 97.1364 5.392C97.531 5.04 98.059 4.864 98.7204 4.864C99.3817 4.864 99.9097 5.02933 100.304 5.36C100.699 5.69067 100.896 6.11733 100.896 6.64C100.896 7.19467 100.699 7.65333 100.304 8.016C99.9097 8.368 99.3817 8.544 98.7204 8.544ZM106.752 18.16C105.76 18.16 104.88 17.968 104.112 17.584C103.355 17.1893 102.757 16.6507 102.32 15.968C101.883 15.2853 101.664 14.5013 101.664 13.616C101.664 12.7307 101.883 11.9467 102.32 11.264C102.757 10.5813 103.355 10.048 104.112 9.664C104.88 9.28 105.76 9.088 106.752 9.088C107.744 9.088 108.624 9.28 109.392 9.664C110.16 10.048 110.757 10.5813 111.184 11.264C111.621 11.9467 111.84 12.7307 111.84 13.616C111.84 14.5013 111.621 15.2853 111.184 15.968C110.757 16.6507 110.16 17.1893 109.392 17.584C108.624 17.968 107.744 18.16 106.752 18.16ZM106.752 15.344C107.019 15.344 107.259 15.28 107.472 15.152C107.685 15.024 107.856 14.832 107.984 14.576C108.112 14.3093 108.176 13.9893 108.176 13.616C108.176 13.232 108.112 12.9173 107.984 12.672C107.856 12.416 107.685 12.224 107.472 12.096C107.259 11.968 107.019 11.904 106.752 11.904C106.485 11.904 106.245 11.968 106.032 12.096C105.819 12.224 105.648 12.416 105.52 12.672C105.392 12.9173 105.328 13.232 105.328 13.616C105.328 13.9893 105.392 14.3093 105.52 14.576C105.648 14.832 105.819 15.024 106.032 15.152C106.245 15.28 106.485 15.344 106.752 15.344Z" fill="white"/>
<path fill-rule="evenodd" clip-rule="evenodd" d="M21.2713 12.9116V18.4558C21.2713 18.4558 18.1286 20.1617 13.1185 20.1617C8.10828 20.1617 4.96558 18.4558 4.96558 18.4558V12.9116" fill="white"/>
<path d="M21.2713 12.9116V18.4558C21.2713 18.4558 18.1286 20.1617 13.1185 20.1617C8.10828 20.1617 4.96558 18.4558 4.96558 18.4558V12.9116" stroke="#9980B7" stroke-width="2" stroke-linecap="round" stroke-linejoin="round"/>
<path fill-rule="evenodd" clip-rule="evenodd" d="M1.50311 11.0601C1.03158 10.8453 1.0325 10.4965 1.50311 10.2821L12.1462 5.43303C12.6177 5.2182 13.3832 5.21862 13.8538 5.43303L24.4969 10.2821C24.9684 10.497 24.9675 10.8457 24.4969 11.0601L13.8538 15.9092C13.3823 16.1241 12.6168 16.1236 12.1462 15.9092L1.50311 11.0601Z" fill="white" stroke="#9980B7" stroke-width="2" stroke-linecap="round" stroke-linejoin="round"/>
<path d="M19.353 13.7644V21.441" stroke="#9980B7" stroke-width="2" stroke-linecap="round" stroke-linejoin="round"/>
<path d="M19.353 24C20.1476 24 20.7918 23.4272 20.7918 22.7206C20.7918 22.014 20.1476 21.4412 19.353 21.4412C18.5585 21.4412 17.9143 22.014 17.9143 22.7206C17.9143 23.4272 18.5585 24 19.353 24Z" fill="white" stroke="#9980B7" stroke-width="2" stroke-linecap="round" stroke-linejoin="round"/>
<path d="M5.44507 10.7792L7.36339 9.92627" stroke="#9980B7" stroke-width="2" stroke-linecap="round" stroke-linejoin="round"/>
<path d="M7.36353 11.6323L9.28185 10.7793" stroke="#9980B7" stroke-width="2" stroke-linecap="round" stroke-linejoin="round"/>
</svg>
