<svg width="174" height="45" viewBox="0 0 174 45" fill="none" xmlns="http://www.w3.org/2000/svg">
<path d="M50.368 30V13.2H56.032V25.608H63.616V30H50.368ZM73.1909 30V27.672L72.8069 27.048V22.632C72.8069 21.992 72.6069 21.504 72.2069 21.168C71.8229 20.832 71.1909 20.664 70.3109 20.664C69.7189 20.664 69.1189 20.76 68.5109 20.952C67.9029 21.128 67.3829 21.376 66.9509 21.696L65.2229 18.12C65.9909 17.64 66.9109 17.272 67.9829 17.016C69.0549 16.76 70.1029 16.632 71.1269 16.632C73.3829 16.632 75.1269 17.136 76.3589 18.144C77.6069 19.152 78.2309 20.752 78.2309 22.944V30H73.1909ZM69.4709 30.24C68.3989 30.24 67.5029 30.056 66.7829 29.688C66.0629 29.32 65.5189 28.832 65.1509 28.224C64.7829 27.6 64.5989 26.912 64.5989 26.16C64.5989 25.312 64.8149 24.592 65.2469 24C65.6789 23.408 66.3349 22.96 67.2149 22.656C68.1109 22.352 69.2389 22.2 70.5989 22.2H73.3349V24.816H71.4629C70.8869 24.816 70.4629 24.912 70.1909 25.104C69.9349 25.28 69.8069 25.552 69.8069 25.92C69.8069 26.224 69.9189 26.48 70.1429 26.688C70.3829 26.88 70.7029 26.976 71.1029 26.976C71.4709 26.976 71.8069 26.88 72.1109 26.688C72.4309 26.48 72.6629 26.16 72.8069 25.728L73.5029 27.336C73.2949 28.312 72.8549 29.04 72.1829 29.52C71.5109 30 70.6069 30.24 69.4709 30.24ZM89.695 16.632C90.703 16.632 91.615 16.84 92.431 17.256C93.247 17.656 93.887 18.288 94.351 19.152C94.831 20.016 95.071 21.136 95.071 22.512V30H89.647V23.448C89.647 22.632 89.503 22.056 89.215 21.72C88.927 21.368 88.535 21.192 88.039 21.192C87.671 21.192 87.327 21.28 87.007 21.456C86.703 21.616 86.455 21.888 86.263 22.272C86.087 22.656 85.999 23.176 85.999 23.832V30H80.575V16.872H85.735V20.712L84.703 19.608C85.215 18.616 85.903 17.872 86.767 17.376C87.647 16.88 88.623 16.632 89.695 16.632ZM103.421 30.24C102.285 30.24 101.229 29.968 100.253 29.424C99.2929 28.864 98.5249 28.08 97.9489 27.072C97.3729 26.048 97.0849 24.832 97.0849 23.424C97.0849 22.016 97.3729 20.808 97.9489 19.8C98.5249 18.776 99.2929 17.992 100.253 17.448C101.229 16.904 102.285 16.632 103.421 16.632C104.573 16.632 105.517 16.88 106.253 17.376C106.989 17.856 107.533 18.6 107.885 19.608C108.237 20.6 108.413 21.872 108.413 23.424C108.413 24.992 108.245 26.28 107.909 27.288C107.589 28.296 107.061 29.04 106.325 29.52C105.605 30 104.637 30.24 103.421 30.24ZM104.717 26.016C105.117 26.016 105.477 25.92 105.797 25.728C106.117 25.536 106.373 25.248 106.565 24.864C106.757 24.464 106.853 23.984 106.853 23.424C106.853 22.848 106.757 22.376 106.565 22.008C106.373 21.624 106.117 21.336 105.797 21.144C105.477 20.952 105.117 20.856 104.717 20.856C104.317 20.856 103.957 20.952 103.637 21.144C103.317 21.336 103.061 21.624 102.869 22.008C102.677 22.376 102.581 22.848 102.581 23.424C102.581 23.984 102.677 24.464 102.869 24.864C103.061 25.248 103.317 25.536 103.637 25.728C103.957 25.92 104.317 26.016 104.717 26.016ZM107.021 30V28.224L106.997 23.424L106.757 18.624V12.192H112.181V30H107.021ZM114.751 30V13.2H123.031C124.903 13.2 126.551 13.544 127.975 14.232C129.399 14.904 130.511 15.864 131.311 17.112C132.111 18.36 132.511 19.848 132.511 21.576C132.511 23.32 132.111 24.824 131.311 26.088C130.511 27.336 129.399 28.304 127.975 28.992C126.551 29.664 124.903 30 123.031 30H114.751ZM120.415 25.584H122.791C123.591 25.584 124.287 25.432 124.879 25.128C125.487 24.824 125.959 24.376 126.295 23.784C126.631 23.176 126.799 22.44 126.799 21.576C126.799 20.728 126.631 20.008 126.295 19.416C125.959 18.824 125.487 18.376 124.879 18.072C124.287 17.768 123.591 17.616 122.791 17.616H120.415V25.584ZM141.347 30.24C139.859 30.24 138.539 29.952 137.387 29.376C136.251 28.784 135.355 27.976 134.699 26.952C134.043 25.928 133.715 24.752 133.715 23.424C133.715 22.096 134.043 20.92 134.699 19.896C135.355 18.872 136.251 18.072 137.387 17.496C138.539 16.92 139.859 16.632 141.347 16.632C142.835 16.632 144.155 16.92 145.307 17.496C146.459 18.072 147.355 18.872 147.995 19.896C148.651 20.92 148.979 22.096 148.979 23.424C148.979 24.752 148.651 25.928 147.995 26.952C147.355 27.976 146.459 28.784 145.307 29.376C144.155 29.952 142.835 30.24 141.347 30.24ZM141.347 26.016C141.747 26.016 142.107 25.92 142.427 25.728C142.747 25.536 143.003 25.248 143.195 24.864C143.387 24.464 143.483 23.984 143.483 23.424C143.483 22.848 143.387 22.376 143.195 22.008C143.003 21.624 142.747 21.336 142.427 21.144C142.107 20.952 141.747 20.856 141.347 20.856C140.947 20.856 140.587 20.952 140.267 21.144C139.947 21.336 139.691 21.624 139.499 22.008C139.307 22.376 139.211 22.848 139.211 23.424C139.211 23.984 139.307 24.464 139.499 24.864C139.691 25.248 139.947 25.536 140.267 25.728C140.587 25.92 140.947 26.016 141.347 26.016ZM150.557 34.896C149.917 34.896 149.309 34.84 148.733 34.728C148.141 34.616 147.637 34.456 147.221 34.248L148.517 30.48C148.901 30.688 149.309 30.792 149.741 30.792C150.061 30.792 150.325 30.672 150.533 30.432C150.757 30.192 150.869 29.808 150.869 29.28V16.872H156.293V29.328C156.293 31.024 155.789 32.376 154.781 33.384C153.773 34.392 152.365 34.896 150.557 34.896ZM153.581 15.816C152.589 15.816 151.797 15.552 151.205 15.024C150.613 14.496 150.317 13.84 150.317 13.056C150.317 12.272 150.613 11.616 151.205 11.088C151.797 10.56 152.589 10.296 153.581 10.296C154.573 10.296 155.365 10.544 155.957 11.04C156.549 11.536 156.845 12.176 156.845 12.96C156.845 13.792 156.549 14.48 155.957 15.024C155.365 15.552 154.573 15.816 153.581 15.816ZM165.628 30.24C164.14 30.24 162.82 29.952 161.668 29.376C160.532 28.784 159.636 27.976 158.98 26.952C158.324 25.928 157.996 24.752 157.996 23.424C157.996 22.096 158.324 20.92 158.98 19.896C159.636 18.872 160.532 18.072 161.668 17.496C162.82 16.92 164.14 16.632 165.628 16.632C167.116 16.632 168.436 16.92 169.588 17.496C170.74 18.072 171.636 18.872 172.276 19.896C172.932 20.92 173.26 22.096 173.26 23.424C173.26 24.752 172.932 25.928 172.276 26.952C171.636 27.976 170.74 28.784 169.588 29.376C168.436 29.952 167.116 30.24 165.628 30.24ZM165.628 26.016C166.028 26.016 166.388 25.92 166.708 25.728C167.028 25.536 167.284 25.248 167.476 24.864C167.668 24.464 167.764 23.984 167.764 23.424C167.764 22.848 167.668 22.376 167.476 22.008C167.284 21.624 167.028 21.336 166.708 21.144C166.388 20.952 166.028 20.856 165.628 20.856C165.228 20.856 164.868 20.952 164.548 21.144C164.228 21.336 163.972 21.624 163.78 22.008C163.588 22.376 163.492 22.848 163.492 23.424C163.492 23.984 163.588 24.464 163.78 24.864C163.972 25.248 164.228 25.536 164.548 25.728C164.868 25.92 165.228 26.016 165.628 26.016Z" fill="white"/>
<path fill-rule="evenodd" clip-rule="evenodd" d="M38.1641 23.6711V33.8355C38.1641 33.8355 32.4025 36.963 23.2172 36.963C14.0319 36.963 8.27026 33.8355 8.27026 33.8355V23.6711" fill="white"/>
<path d="M38.1641 23.6711V33.8355C38.1641 33.8355 32.4025 36.963 23.2172 36.963C14.0319 36.963 8.27026 33.8355 8.27026 33.8355V23.6711" stroke="#9980B7" stroke-width="2" stroke-linecap="round" stroke-linejoin="round"/>
<path fill-rule="evenodd" clip-rule="evenodd" d="M1.92237 20.2771C1.0579 19.8832 1.05959 19.2439 1.92237 18.8508L21.4347 9.96076C22.2992 9.5669 23.7025 9.56767 24.5653 9.96076L44.0776 18.8508C44.9421 19.2446 44.9404 19.884 44.0776 20.2771L24.5653 29.1671C23.7008 29.561 22.2975 29.5602 21.4347 29.1671L1.92237 20.2771Z" fill="white" stroke="#9980B7" stroke-width="2" stroke-linecap="round" stroke-linejoin="round"/>
<path d="M34.6472 25.2349V39.3086" stroke="#9980B7" stroke-width="2" stroke-linecap="round" stroke-linejoin="round"/>
<path d="M34.6472 44.0001C36.104 44.0001 37.2849 42.9499 37.2849 41.6545C37.2849 40.359 36.104 39.3088 34.6472 39.3088C33.1905 39.3088 32.0095 40.359 32.0095 41.6545C32.0095 42.9499 33.1905 44.0001 34.6472 44.0001Z" fill="white" stroke="#9980B7" stroke-width="2" stroke-linecap="round" stroke-linejoin="round"/>
<path d="M9.14941 19.7618L12.6663 18.198" stroke="#9980B7" stroke-width="2" stroke-linecap="round" stroke-linejoin="round"/>
<path d="M12.6663 21.3257L16.1832 19.762" stroke="#9980B7" stroke-width="2" stroke-linecap="round" stroke-linejoin="round"/>
</svg>
