<svg width="48" height="48" viewBox="0 0 48 48" fill="none" xmlns="http://www.w3.org/2000/svg">
<path d="M48 24C48 10.7456 37.2544 0 24 0C11.0888 0 0.5624 10.1968 0.0247999 22.976C0.0183999 23.1328 0.0168 23.292 0.0136 23.4496C0.00959997 23.6336 0 23.816 0 24V24.0808C0 37.2912 10.7456 48 24 48C37.2544 48 48 37.2912 48 24.0808L47.9984 24.0416L48 24ZM28.792 45.8808C28.372 45.6528 27.9688 45.2792 27.8048 44.7704C27.508 43.8488 27.7376 43.1336 28.0784 42.3016C28.3504 41.6352 27.9848 40.8656 28.1656 40.168C28.5184 38.8104 28.944 37.3392 28.8128 35.8808C28.7312 34.9856 28.5328 34.9448 27.8704 34.428C27.172 33.88 27.172 33.1048 26.7048 32.412C26.2816 31.7824 27.4208 29.3904 27.1032 29.2448C26.7472 29.0808 25.9376 29.2952 25.6816 28.9552C25.4064 28.5888 25.2144 28.156 24.836 27.872C24.592 27.6888 23.5128 27.076 23.2248 27.1192C21.7744 27.336 20.2032 25.9216 19.2776 24.9992C18.64 24.3664 18.3744 23.6568 17.9072 22.9248C17.512 22.3048 16.9136 22.2512 16.62 21.4824C16.312 20.6792 16.4952 19.6504 16.4016 18.8056C16.3 17.8976 15.8488 17.608 15.2848 16.9136C14.0784 15.4232 13.6344 13.1992 11.3456 13.1992C10.116 13.1992 10.2032 15.8776 9.2128 15.5184C8.0928 15.1128 6.36 17.0312 6.3848 16.7728C6.516 15.4336 7.8912 14.7824 8.0256 14.3832C8.4648 13.0728 6.0632 13.3864 6.3712 12.2936C6.5216 11.756 8.0496 11.3648 7.7336 11.044C7.6384 10.9464 6.4696 10.1264 6.5272 10.0856C6.744 9.9336 7.6864 10.4152 7.4816 9.7896C7.4128 9.5816 7.3016 9.3904 7.196 9.1976C7.68173 8.64601 8.19435 8.11871 8.732 7.6176C9.5432 7.5512 10.3848 7.6016 10.6896 7.6608C12.6224 8.0416 13.2944 9.02 15.2272 8.296C16.1568 7.9488 19.5832 8.5512 20.0744 9.5256C20.3416 10.0584 21.3368 9.2032 21.7248 9.1456C22.1408 9.0832 23.0808 9.724 23.3672 9.3312C24.1216 8.2984 22.884 7.8696 24.3456 8.6648C25.3256 9.1984 27.2408 6.852 26.6344 9.6096C26.1968 11.5976 24.5888 11.6416 23.4096 12.9368C22.2488 14.212 25.7064 14.5592 25.7952 15.7112C26.0512 19.028 27.82 15.4408 27.3464 14.2616C26.4304 11.9776 28.3888 12.6048 29.1776 14.056C29.6152 14.8616 29.948 14.1832 30.484 13.9024C30.9184 13.676 31.0344 14.9024 31.128 15.116C31.436 15.8256 32.448 16.0376 32.2768 16.9512C32.0864 17.9584 31.3704 17.656 30.6704 17.8264C29.8888 18.016 30.7968 18.6736 30.6832 18.9136C30.56 19.176 29.6176 19.2848 29.3664 19.4336C28.6272 19.8688 29.0792 20.7176 28.5008 21.1736C28.104 21.4872 27.704 21.2832 27.6272 21.8704C27.5368 22.5624 26.2616 22.7848 26.4272 23.4464C26.4728 23.628 26.84 24.9848 26.6088 25.0568C26.5024 25.0912 25.6616 23.8768 25.432 23.7552C24.9776 23.5144 22.912 23.7112 22.6464 25.0784C22.4744 25.9624 23.8968 27.3584 24.2592 26.1408C24.708 24.6424 24.9216 27.0136 24.8136 27.1064C25.028 27.2936 26.2824 26.7984 25.9104 27.6664C25.7528 28.0336 26.0648 28.9912 26.6216 28.696C26.8544 28.5728 27.4544 28.944 27.5592 28.7448C27.7098 28.5154 27.9134 28.3255 28.1528 28.1912C28.7136 27.8632 29.5528 28.1712 30.1672 28.2072C30.5424 28.2288 33.6176 29.9064 33.6344 30.2432C33.7016 31.5032 36.0264 31.3392 36.3832 31.7896C37.3424 33.0104 37.0472 32.3904 36.3472 33.9544C35.9944 34.7416 36.3016 35.7072 35.4472 36.2776C35.036 36.5512 34.5344 36.4144 34.1688 36.8016C33.8392 37.1512 33.9688 37.5688 33.7688 37.9728C33.528 38.4536 30.292 41.3616 30.0784 42.0648C29.972 42.4176 29.0064 42.7248 29.8208 43.0632C30.2944 43.2024 28.772 44.6416 29.504 45.2376C29.6824 45.3824 29.7992 45.5048 29.8872 45.6144C29.5216 45.712 29.1592 45.8008 28.792 45.8808ZM26.8752 1.7896C26.844 1.9056 26.8912 2.0424 27.092 2.176C27.5448 2.476 26.9624 3.1424 26.3376 2.7128C25.7144 2.2832 24.3128 2.9056 24.4096 3.228C24.5048 3.5504 24.9376 3.6784 25.6064 3.4216C26.2736 3.164 26.5488 3.46 26.6608 3.7656C26.7376 3.9728 26.6608 4.088 26.6392 4.3672C26.6192 4.6464 25.8424 4.4528 25.1968 4.4968C24.5496 4.54 23.8608 4.3672 23.8808 4.0016C23.9024 3.6368 23.192 2.9704 22.768 2.692C22.3448 2.4136 22.9536 1.812 23.5152 2.2624C24.0744 2.7136 24.0968 2.1768 24.7432 2.0056C25.1104 1.908 24.9632 1.7616 24.8384 1.6224C25.5264 1.6464 26.2048 1.704 26.8752 1.7896ZM29.6888 8.8848C30.1728 9.016 31.0136 9.628 31.0136 9.9176C31.0136 10.208 30.632 10.5712 30.4632 10.5296C29.2448 10.2328 28.2176 9.0304 27.652 8.372C26.6648 7.224 26.7272 8.208 25.1632 7.7112C24.7632 7.5832 24.1288 6.3424 24.5488 5.7304C24.9688 5.1184 25.4536 5.0216 25.8408 5.184C26.228 5.344 27.3592 4.668 27.6192 5.4736C27.8768 6.2792 28.588 7.3072 29.2352 7.5824C29.8832 7.856 29.2032 8.7536 29.6888 8.8848ZM30.0768 12.6232C30.2704 13.0096 28.9128 12.172 28.5896 11.7856C28.268 11.4 27.7816 10.5288 28.1712 10.1424C28.5584 9.7568 29.4272 10.9464 29.884 11.2064C30.7872 11.7224 29.8832 12.2376 30.0768 12.6232ZM23.2016 6.7712C23.2952 6.6424 23.4936 6.9648 23.6704 7.2872C23.8472 7.6096 23.6032 8.064 23.2016 7.9952C22.8 7.928 22.9768 7.0864 23.2016 6.7712ZM23.2016 3.5296C23.2016 3.5296 23.58 4.4528 23.2016 4.3024C22.8232 4.152 22.8048 3.7656 23.2016 3.5296ZM23.2784 6.4496C23.1704 6.1928 23.1456 5.1376 23.408 4.8176C23.7952 4.3456 24.4208 5.2688 24 5.6336C23.58 5.9992 23.3856 6.708 23.2784 6.4496ZM18.4168 7.5816C17.7136 7.5312 17.6984 6.9232 17.6008 6.6008C17.5032 6.2784 16.9208 7.2128 16.332 6.6008C15.7432 5.9888 16.4696 5.184 16.34 4.7C16.2104 4.2168 17.7288 4.7 17.956 4.7C18.1832 4.7 18.7968 5.6984 18.9576 5.6816C19.12 5.6656 19.992 6.4712 19.992 6.1488C19.992 5.8272 20.1248 5.2784 20.736 5.2144C21.6736 5.1176 20.8328 6.2456 20.8 6.6848C20.7688 7.124 21.5128 7.888 21.7856 8.2104C22.0608 8.5328 21.092 8.7592 20.9296 8.5648C20.7688 8.3712 20.348 8.5648 19.992 8.8224C19.6376 9.08 18.6672 8.468 18.2152 8.2744C17.7624 8.0816 19.12 7.6312 18.4168 7.5816ZM20.9296 2.4984C21.5544 2.7136 21.9096 2.9064 22.2168 2.4984C22.5136 2.1048 22.74 3.3568 22.5248 3.7C22.3088 4.0448 21.9 3.9592 21.8344 3.7C21.7704 3.444 20.3048 2.2832 20.9296 2.4984ZM21.8344 6.3856C21.62 6.1056 21.5984 5.784 21.8344 5.548C22.072 5.312 21.9952 5.0328 22.4176 4.9472C22.6256 4.904 22.6536 5.2256 22.6536 5.5264C22.6536 5.8272 22.9128 6.2136 22.6536 6.6848C22.3952 7.156 22.0504 6.664 21.8344 6.3856ZM23.5984 1.6104C23.5888 1.6696 23.5496 1.7048 23.4512 1.6952C23.3835 1.68373 23.3191 1.6578 23.2624 1.6192C23.3752 1.6152 23.4856 1.612 23.5984 1.6104ZM18.7112 2.52C19.2064 2.52 19.1424 2.8544 19.552 3.0952C19.9616 3.3352 19.7456 1.8536 20.0256 2.412C20.3056 2.9696 21.1368 3.7432 20.7368 3.8928C20.3928 4.0232 18.9496 4.58 18.82 4.484C18.6904 4.388 18.5184 3.98 18.1728 3.8928C17.8272 3.8072 17.4616 2.9912 17.224 3.0128C17.1336 3.0208 17.1256 2.8656 17.1848 2.6592C17.6003 2.52543 18.0197 2.40405 18.4424 2.2952C18.4888 2.4216 18.5592 2.52 18.7112 2.52ZM29.5264 26.54C29.0104 27.0728 28.1216 26.1688 27.508 26.2008C26.8944 26.2328 26.5864 25.5888 26.0536 25.6536C25.5192 25.7168 26.1992 24.976 26.9424 25.364C27.684 25.7504 29.9472 26.104 29.5264 26.54ZM39.8704 8.1928C39.72 8.3848 39.5488 8.5192 39.3848 8.6608C38.9008 9.08 37.996 9.048 37.8664 9.3376C37.7368 9.6272 37.4136 10.5288 36.2824 10.5328C35.1512 10.536 35.4744 12.2376 35.3776 12.7232C35.2808 13.2088 35.0232 13.7832 34.6992 13.364C34.376 12.9456 34.2464 13.1056 33.2464 11.8816C32.2464 10.6576 32.6304 9.9816 32.9544 9.6272C33.2776 9.2736 33.4072 8.4352 32.9544 8.564C32.5016 8.6928 32.2432 8.4024 32.34 8.0016C32.4368 7.6008 32.9216 7.308 32.34 6.88C31.7584 6.4528 32.0808 4.924 31.6288 3.5288C31.176 2.1328 30.5616 3.1208 29.56 3.1744C28.5584 3.228 28.396 2.476 28.8488 2.132C33.027 3.05595 36.8522 5.15947 39.8704 8.1928Z" fill="#673F86"/>
</svg>
