<svg width="24" height="24" viewBox="0 0 24 24" fill="none" xmlns="http://www.w3.org/2000/svg">
<path d="M12 0C9.66814 0.00442661 7.3879 0.686283 5.43701 1.96251C3.48612 3.23875 1.94878 5.05427 1.01226 7.18795C0.0757348 9.32163 -0.219559 11.6814 0.162347 13.9798C0.544253 16.2781 1.58687 18.416 3.16322 20.1328C4.28906 21.3521 5.65548 22.3252 7.17636 22.9908C8.69725 23.6564 10.3396 24 12 24C13.6604 24 15.3028 23.6564 16.8236 22.9908C18.3445 22.3252 19.7109 21.3521 20.8368 20.1328C22.4131 18.416 23.4557 16.2781 23.8377 13.9798C24.2196 11.6814 23.9243 9.32163 22.9877 7.18795C22.0512 5.05427 20.5139 3.23875 18.563 1.96251C16.6121 0.686283 14.3319 0.00442661 12 0ZM12 21.6223C9.50943 21.6186 7.11742 20.6497 5.32733 18.9196C5.87081 17.5976 6.79535 16.467 7.98347 15.6713C9.1716 14.8755 10.5697 14.4507 12 14.4507C13.4303 14.4507 14.8284 14.8755 16.0165 15.6713C17.2046 16.467 18.1292 17.5976 18.6727 18.9196C16.8826 20.6497 14.4906 21.6186 12 21.6223ZM9.59543 9.60993C9.59543 9.13477 9.73646 8.67027 10.0007 8.27518C10.2649 7.8801 10.6404 7.57217 11.0798 7.39033C11.5192 7.20849 12.0027 7.16091 12.4691 7.25361C12.9355 7.34631 13.364 7.57513 13.7003 7.91112C14.0366 8.24711 14.2656 8.6752 14.3584 9.14123C14.4511 9.60727 14.4035 10.0903 14.2215 10.5293C14.0395 10.9683 13.7313 11.3435 13.3359 11.6075C12.9405 11.8715 12.4756 12.0124 12 12.0124C11.3623 12.0124 10.7507 11.7593 10.2997 11.3087C9.84877 10.8582 9.59543 10.2471 9.59543 9.60993ZM20.3078 16.8174C19.2336 14.9816 17.5803 13.5536 15.6069 12.7572C16.219 12.0637 16.6179 11.2084 16.7556 10.294C16.8933 9.37955 16.764 8.44486 16.3832 7.60205C16.0024 6.75924 15.3863 6.04412 14.6088 5.54249C13.8314 5.04086 12.9255 4.77403 12 4.77403C11.0745 4.77403 10.1686 5.04086 9.39116 5.54249C8.61367 6.04412 7.99756 6.75924 7.61677 7.60205C7.23599 8.44486 7.10669 9.37955 7.2444 10.294C7.38211 11.2084 7.78098 12.0637 8.39315 12.7572C6.41972 13.5536 4.76642 14.9816 3.69222 16.8174C2.83613 15.3604 2.3838 13.7019 2.38173 12.0124C2.38173 9.4637 3.39508 7.01938 5.19886 5.21717C7.00263 3.41496 9.44908 2.40248 12 2.40248C14.5509 2.40248 16.9974 3.41496 18.8011 5.21717C20.6049 7.01938 21.6183 9.4637 21.6183 12.0124C21.6162 13.7019 21.1639 15.3604 20.3078 16.8174Z" fill="white"/>
</svg>
